<svg width="711" height="351" viewBox="0 0 711 351" fill="none" xmlns="http://www.w3.org/2000/svg">
<path d="M169.892 299.665C160.246 304.663 125.123 328.124 71.8549 315.876C7.20872 301.016 1.96958 234.687 0.575471 215.707C-4.55125 145.91 25.3096 96.1297 60.9269 63.1904C162.854 -31.1473 299.409 2.91785 351.711 21.8529C406.171 41.576 450.648 83.0936 504.096 105.789C538.007 120.211 574.766 126.665 611.555 124.656C628.217 123.733 645.283 121.099 661.383 125.489C695.111 134.698 715.236 174.684 710.244 210.235C705.252 245.787 680.024 275.664 650.028 294.104C607.98 319.928 560.085 341.205 512.303 347.892C460.451 355.119 402.618 349.783 353.397 331.456C336.331 325.107 320.411 315.898 303.637 308.738C268.806 293.879 215.943 281.09 179.111 295.432C175.968 296.685 172.891 298.098 169.892 299.665Z" fill="url(#paint0_linear_1146_438)"/>
<defs>
<linearGradient id="paint0_linear_1146_438" x1="355.489" y1="17.1248" x2="355.489" y2="376.936" gradientUnits="userSpaceOnUse">
<stop stop-color="#6D2323"/>
<stop offset="0.989" stop-color="#AD0505"/>
</linearGradient>
</defs>
</svg>
