<svg width="10" height="6" viewBox="0 0 10 6" fill="none" xmlns="http://www.w3.org/2000/svg">
<path d="M9.79231 0.210392C9.72592 0.143726 9.64693 0.0908114 9.55989 0.0547013C9.47286 0.0185911 9.37951 0 9.28523 0C9.19094 0 9.09759 0.0185911 9.01056 0.0547013C8.92353 0.0908114 8.84454 0.143726 8.77814 0.210392L5.50708 3.468C5.44069 3.53467 5.3617 3.58758 5.27467 3.62369C5.18763 3.6598 5.09428 3.67839 5 3.67839C4.90572 3.67839 4.81237 3.6598 4.72533 3.62369C4.6383 3.58758 4.55931 3.53467 4.49291 3.468L1.22186 0.210392C1.15546 0.143726 1.07647 0.0908114 0.989437 0.0547013C0.902405 0.0185911 0.809054 0 0.714771 0C0.620487 0 0.527137 0.0185911 0.440104 0.0547013C0.353072 0.0908114 0.27408 0.143726 0.207685 0.210392C0.0746641 0.343657 0 0.523929 0 0.711836C0 0.899743 0.0746641 1.08002 0.207685 1.21328L3.48589 4.478C3.88763 4.87759 4.4322 5.10204 5 5.10204C5.56779 5.10204 6.11237 4.87759 6.51411 4.478L9.79231 1.21328C9.92533 1.08002 10 0.899743 10 0.711836C10 0.523929 9.92533 0.343657 9.79231 0.210392Z" fill="#989898"/>
</svg>
